<svg id="Layer_1" xmlns="http://www.w3.org/2000/svg" viewBox="0 0 248 84"><style>.st0{fill:#FFFFFF;}</style><g id="Layer_1_1_"><title>logo</title><path class="st0" d="M82.7 29.1l-.1.1c-.3.4-.6.8-1 1.1-.4.4-.9.7-1.4 1-1 .6-2.2.9-3.3.9-3.9 0-7.1-3.2-7.1-7.1 0-.8.1-1.5.4-2.2.3-1 .9-1.9 1.6-2.7l.2-.2c1.3-1.3 3.1-2 4.9-2 3.9 0 7.1 3.2 7.1 7.1 0 1.4-.4 2.8-1.3 4m4 21c0 17-13.8 30.8-30.8 30.8S25.1 67.1 25.1 50.1s13.8-30.8 30.8-30.8c4.5 0 8.8 1 12.6 2.7-.3.9-.5 2-.5 3 0 4.9 4 8.9 8.9 8.9 1.6 0 3.1-.4 4.4-1.2 3.6 5.2 5.4 11.2 5.4 17.4m14.8-28.9c-.2-.4-.7-.6-1.1-.4l-15 6.9c.2-.5.3-1 .3-1.6 0 0 .1 0 .1-.1l7.7-6.2c.3-.3.4-.8.1-1.2-.3-.3-.7-.4-1.1-.2L85.8 24c-.2-1.7-.9-3.4-2.1-4.7l6.9-6.8c.3-.3.3-.8 0-1.2-.3-.3-.8-.3-1.1 0l-7 6.8c-1.3-1.1-2.9-1.7-4.6-1.9l5.4-6.8c.3-.4.2-.9-.1-1.1-.3-.3-.8-.2-1.1.1l-6.3 7.8c-.7.1-1.3.2-1.9.5L81 1.4c.2-.4 0-.9-.4-1.1s-.9 0-1.1.4l-8 17.3c-.4.3-.8.6-1.1 1-.1.1-.3.2-.4.4-4.4-2-9.3-3.1-14.2-3.1C37.2 16.3 22 31.4 22 50.1S37.2 84 55.9 84s33.9-15.2 33.9-33.9c0-6.9-2.1-13.7-6.1-19.4l.3-.3c.1-.2.3-.3.4-.5l16.7-7.7c.4-.1.6-.6.4-1M104.3 51.6h-4.8l-1.1 3.7h-1.8l4.5-14.3h1.5l4.6 14.3h-1.8l-1.1-3.7zM99.9 50h3.9l-2-6.5-1.9 6.5zM111.1 55.3h-1.8V41h1.8v14.3zM118.6 49.5H116v5.8h-1.8V41h4c1.4 0 2.5.4 3.2 1.1.7.7 1.1 1.8 1.1 3.2 0 .9-.2 1.7-.6 2.3-.4.7-.9 1.2-1.7 1.5l2.8 6.1v.1h-1.9l-2.5-5.8zM116 48h2.2c.4 0 .8-.1 1.1-.2.3-.1.6-.3.8-.6.2-.2.4-.5.5-.8s.2-.7.2-1c0-.4 0-.8-.1-1.1s-.2-.6-.4-.9c-.2-.2-.5-.4-.8-.6-.3-.1-.7-.2-1.1-.2H116V48zM128.8 52.6l3.3-11.6h2l-4.5 14.3H128L123.6 41h2l3.2 11.6zM137.9 55.3h-1.8V41h1.8v14.3zM145.4 49.5h-2.5v5.8h-1.8V41h4c1.4 0 2.5.4 3.2 1.1.7.7 1.1 1.8 1.1 3.2 0 .9-.2 1.7-.6 2.3-.4.7-.9 1.2-1.7 1.5l2.8 6.1v.1H148l-2.6-5.8zm-2.5-1.5h2.2c.4 0 .8-.1 1.1-.2.3-.1.6-.3.8-.6.2-.2.4-.5.5-.8s.2-.7.2-1c0-.4 0-.8-.1-1.1-.1-.3-.2-.6-.4-.9-.2-.2-.5-.4-.8-.6s-.7-.2-1.1-.2h-2.2V48h-.2zM161.1 49.4c0 1-.1 1.9-.3 2.7s-.5 1.4-1 1.9c-.4.5-.9.9-1.5 1.1-.6.3-1.3.4-2 .4s-1.4-.1-2-.4c-.6-.3-1.1-.6-1.5-1.1s-.8-1.1-1-1.9-.3-1.6-.3-2.7V47c0-1 .1-1.9.3-2.7s.6-1.4 1-1.9.9-.9 1.5-1.2 1.2-.4 2-.4c.7 0 1.4.1 2 .4s1.1.6 1.5 1.2c.4.5.7 1.2 1 1.9.2.8.3 1.7.3 2.7v2.4zm-1.8-2.5c0-.8-.1-1.5-.2-2-.1-.6-.3-1-.6-1.4s-.6-.6-.9-.8c-.4-.2-.8-.3-1.3-.3s-.9.1-1.3.3c-.4.2-.7.4-.9.8-.3.4-.5.8-.6 1.4-.1.6-.2 1.2-.2 2v2.5c0 .8.1 1.5.2 2 .1.6.3 1 .6 1.4s.6.6 1 .8.8.3 1.3.3.9-.1 1.3-.3c.4-.2.7-.4.9-.8.3-.4.4-.8.6-1.4.1-.6.2-1.2.2-2v-2.5h-.1zM173.2 55.3h-1.8l-5.7-11v11h-1.8V41h1.8l5.8 11.1V41h1.8v14.3h-.1zM178.6 41l3.7 11.7L186 41h2.3v14.3h-1.8v-5.6l.2-5.6-3.7 11.2h-1.4l-3.7-11.1.2 5.5v5.6h-1.8V41h2.3zM198.4 48.7h-5.1v5.1h5.9v1.5h-7.7V41h7.6v1.6h-5.8v4.6h5.1v1.5zM210.9 55.3h-1.8l-5.7-11v11h-1.8V41h1.8l5.8 11.1V41h1.8v14.3h-.1zM222.1 42.6h-3.8v12.8h-1.8V42.6h-3.8V41h9.3v1.6h.1z"/></g><g id="Layer_2"><path class="st0" d="M70.3 46.3c0-3-2.5-5.5-5.5-5.5s-5.5 2.5-5.5 5.5c0 .9.7 1.6 1.6 1.6.9 0 1.6-.7 1.6-1.6 0-1.3 1.1-2.4 2.4-2.4 1.3 0 2.4 1.1 2.4 2.4 0 1.7-1.4 3.1-3.1 3.1H39.6c-.9 0-1.6.7-1.6 1.6 0 .9.7 1.6 1.6 1.6H64c3.5 0 6.3-2.8 6.3-6.3z"/><path class="st0" d="M39.2 46.2H48c3 0 5.4-2.4 5.4-5.4 0-2.6-2.1-4.7-4.7-4.7S44 38.2 44 40.8c0 .7.5 1.2 1.2 1.2s1.2-.5 1.2-1.2c0-1.3 1-2.3 2.3-2.3s2.3 1 2.3 2.3c0 1.6-1.3 3-3 3h-8.8c-.7 0-1.2.5-1.2 1.2s.6 1.2 1.2 1.2zM68.7 55.3H45.9c-.9 0-1.6.7-1.6 1.6 0 .9.7 1.6 1.6 1.6h22.9c1.7 0 3.1 1.4 3.1 3.1 0 1.3-1.1 2.4-2.4 2.4s-2.4-1.1-2.4-2.4c0-.9-.7-1.6-1.6-1.6-.9 0-1.6.7-1.6 1.6 0 3 2.5 5.5 5.5 5.5s5.5-2.5 5.5-5.5c.1-3.4-2.7-6.3-6.2-6.3z"/></g></svg>